<?xml version="1.0" encoding="UTF-8" standalone="no"?>
<!-- Created with Inkscape (http://www.inkscape.org/) -->

<svg
   width="1280"
   height="640"
   viewBox="0 0 338.66666 169.33333"
   version="1.1"
   id="svg1"
   xml:space="preserve"
   inkscape:version="1.3.2 (1:1.3.2+202311252150+091e20ef0f)"
   sodipodi:docname="SocialBanner.svg"
   inkscape:export-filename="SocialBanner.png"
   inkscape:export-xdpi="96"
   inkscape:export-ydpi="96"
   xmlns:inkscape="http://www.inkscape.org/namespaces/inkscape"
   xmlns:sodipodi="http://sodipodi.sourceforge.net/DTD/sodipodi-0.dtd"
   xmlns="http://www.w3.org/2000/svg"
   xmlns:svg="http://www.w3.org/2000/svg"
   xmlns:rdf="http://www.w3.org/1999/02/22-rdf-syntax-ns#"
   xmlns:cc="http://creativecommons.org/ns#"><sodipodi:namedview
     id="namedview1"
     pagecolor="#ffffff"
     bordercolor="#000000"
     borderopacity="0"
     inkscape:showpageshadow="2"
     inkscape:pageopacity="0.0"
     inkscape:pagecheckerboard="true"
     inkscape:deskcolor="#d1d1d1"
     inkscape:document-units="mm"
     showguides="true"
     inkscape:zoom="5.6568542"
     inkscape:cx="651.42212"
     inkscape:cy="515.8344"
     inkscape:window-width="1366"
     inkscape:window-height="704"
     inkscape:window-x="0"
     inkscape:window-y="0"
     inkscape:window-maximized="1"
     inkscape:current-layer="svg1"
     inkscape:export-bgcolor="#ffffff00"
     showborder="false"
     shape-rendering="auto"
     inkscape:clip-to-page="false"><sodipodi:guide
       position="20.647731,131.26513"
       orientation="1,0"
       id="guide18"
       inkscape:locked="false" /><sodipodi:guide
       position="318.01653,101.83647"
       orientation="1,0"
       id="guide19"
       inkscape:locked="false" /><sodipodi:guide
       position="222.22488,20.640851"
       orientation="0,-1"
       id="guide20"
       inkscape:locked="false" /><sodipodi:guide
       position="183.12783,148.70728"
       orientation="0,-1"
       id="guide21"
       inkscape:locked="false" /></sodipodi:namedview><defs
     id="defs1"><rect
       x="936.32361"
       y="578.64667"
       width="15.545823"
       height="49.86721"
       id="rect15" /><rect
       x="930.99609"
       y="235.39587"
       width="0"
       height="66.483459"
       id="rect14" /></defs><metadata
     id="metadata1"><rdf:RDF><cc:Work
         rdf:about=""><cc:license
           rdf:resource="http://creativecommons.org/publicdomain/zero/1.0/" /></cc:Work><cc:License
         rdf:about="http://creativecommons.org/publicdomain/zero/1.0/"><cc:permits
           rdf:resource="http://creativecommons.org/ns#Reproduction" /><cc:permits
           rdf:resource="http://creativecommons.org/ns#Distribution" /><cc:permits
           rdf:resource="http://creativecommons.org/ns#DerivativeWorks" /></cc:License></rdf:RDF></metadata><g
     transform="matrix(0.30611321,0,0,0.30611321,124.9933,-19.436923)"
     id="g10"
     inkscape:label="Redis"
     style="display:inline"
     sodipodi:insensitive="true"><path
       d="m 204.31983,50.088416 c -1.02422,0.02893 -2.10827,0.327219 -3.71812,0.904854 l -21.16615,8.194848 c -1.3586,0.532026 -2.02054,1.025366 -1.99678,1.551327 0,0 -0.002,5.17e-4 -0.002,5.17e-4 v 5.264278 c 0,0.525289 0.72543,1.081095 2.10478,1.740462 0.0632,0.03021 0.29287,0.124992 0.36897,0.160197 l -0.47542,0.183968 c -1.35586,0.531105 -2.01927,1.023495 -1.99833,1.548226 v 5.264278 c 0,0.523578 0.7223,1.077716 2.0929,1.734261 l -0.0946,0.03669 c -1.35586,0.530798 -2.01927,1.023456 -1.99833,1.548226 v 5.263244 c 0,0.525903 0.72543,1.08213 2.10478,1.741496 2.75961,1.319041 18.079,7.50748 20.50004,8.664587 2.42105,1.157107 4.1239,1.17179 7.18871,-0.425814 3.0648,-1.597602 17.4607,-7.5163 20.23959,-8.964827 1.41424,-0.73712 2.03895,-1.308437 2.03864,-1.828829 l 0.001,-5.188314 c -0.003,-0.001 -0.0106,-0.0026 -0.0134,-0.0036 0.0228,-0.527557 -0.66797,-0.992714 -2.06034,-1.502751 -0.007,-0.0026 -0.0449,-0.01747 -0.0522,-0.02015 0.0161,-0.0083 0.0709,-0.03177 0.0863,-0.03979 v 5.16e-4 c 1.41424,-0.73712 2.03895,-1.30792 2.03864,-1.828312 l 0.001,-5.189347 c -0.003,-9.98e-4 -0.0102,-0.0026 -0.0129,-0.0036 0.0219,-0.527098 -0.66937,-0.992366 -2.06085,-1.502234 -0.0586,-0.02146 -0.35765,-0.140625 -0.42685,-0.166398 0.10167,-0.05032 0.37893,-0.168087 0.46095,-0.21084 v -5.17e-4 c 1.41424,-0.736814 2.03895,-1.307499 2.03864,-1.827279 l 0.001,-5.189347 c -0.003,-0.001 -0.0106,-0.0026 -0.0134,-0.0036 0.0229,-0.527418 -0.66793,-0.992539 -2.06034,-1.502751 -2.70757,-0.992112 -17.01795,-6.690531 -19.75797,-7.69152 -1.37001,-0.500495 -2.33424,-0.741029 -3.35845,-0.712101 z m 93.31368,3.810103 a 2.1274868,2.1274868 0 0 0 -2.1363,2.13682 v 0.830441 c 0,1.186799 0.9495,2.175577 2.1363,2.175577 1.22672,0 2.13604,-0.988494 2.13631,-2.175061 v -0.830957 c 0,-1.187105 -0.90971,-2.13682 -2.13631,-2.13682 z m -7.5308,5.17e-4 c -1.22599,0 -2.17558,0.989509 -2.17558,2.13682 v 7.436755 c -1.46353,-1.028539 -3.36184,-1.661397 -5.30045,-1.661397 -5.34014,0 -9.61234,4.509381 -9.61234,9.92911 0,5.340446 4.2722,9.850561 9.61234,9.850561 1.9781,0 3.88008,-0.672648 5.38003,-1.701188 0.19837,0.949562 1.02563,1.701188 2.09703,1.701188 1.18711,0 2.1363,-0.989509 2.1363,-2.13682 l -5.1e-4,5.17e-4 V 56.035856 c 0,-1.147923 -0.95003,-2.13682 -2.13682,-2.13682 z m -27.55129,7.912178 c -5.41881,0 -9.61181,4.509384 -9.65161,9.889319 l -5.2e-4,-0.0026 c 0.0398,5.379934 4.23331,9.850439 9.65213,9.889319 2.80888,0 5.1426,-0.83147 7.08122,-2.61121 0.90976,-0.830178 0.51427,-2.020416 0,-2.571419 -0.51427,-0.629062 -2.13678,-0.748112 -2.96726,0.122473 -0.99181,0.751506 -2.68993,1.107036 -4.11396,0.98857 -1.38424,-0.118772 -2.9664,-0.830174 -3.79719,-1.779736 -0.71233,-0.672837 -1.14739,-1.701136 -1.34514,-2.61121 h 12.5796 c 1.10752,0 1.93427,-0.632771 2.05672,-1.582333 0.0398,-0.07928 0.0398,-0.276461 0.0398,-0.35605 v -0.197921 c -0.31989,-5.34014 -4.39108,-9.177218 -9.53378,-9.177218 z m 47.17386,0.001 c -1.82015,0 -3.4813,0.514009 -4.86585,1.46296 -1.30527,0.98905 -2.33371,2.531831 -2.33371,4.351672 0,0.909155 0.23763,1.779818 0.67231,2.491837 0.70926,1.068028 1.65815,1.779648 2.72955,2.293917 1.02823,0.477537 2.21506,0.791641 3.44165,1.028878 h 0.0398 c 1.42403,0.277033 2.61367,0.712139 3.16467,1.107943 0.31653,0.197749 0.47438,0.355924 0.51418,0.474389 0.0787,0.119078 0.11834,0.198093 0.11834,0.395842 0,0.316827 -0.16059,0.712533 -0.71159,1.187008 -0.63305,0.395803 -1.61888,0.751375 -2.69027,0.751375 -1.5425,0.03918 -3.32313,-0.869877 -4.35168,-1.740462 -0.86997,-0.751508 -2.25473,-0.632691 -2.96674,0.316259 l -0.003,5.17e-4 c -0.7114,0.870585 -0.59308,2.215452 0.2775,2.92747 1.5823,1.266083 3.95581,2.689759 7.04143,2.729549 1.93831,0 3.71829,-0.594104 5.14232,-1.582849 1.42098,-1.0316 2.49236,-2.653144 2.49236,-4.591451 0,-0.910074 -0.27691,-1.820214 -0.75138,-2.61121 -0.67223,-1.107516 -1.73721,-1.859232 -2.80861,-2.333708 -1.14731,-0.553758 -2.37327,-0.910285 -3.67885,-1.147217 h -0.0398 l -0.0398,-0.03979 c -1.34506,-0.237543 -2.37392,-0.593287 -2.88819,-0.949296 -0.27703,-0.15826 -0.39532,-0.316862 -0.43512,-0.395842 -0.079,-0.118466 -0.0791,-0.158306 -0.0791,-0.31626 0,-0.197749 0.11825,-0.553706 0.63251,-0.910022 0.51427,-0.395497 1.38527,-0.712101 2.37402,-0.712101 1.26915,0 2.37689,0.633509 3.64267,1.463993 0.98874,0.675592 2.29423,0.398692 2.92696,-0.55087 0.59354,-0.988439 0.31703,-2.293912 -0.63252,-2.926953 -1.26609,-0.869974 -3.20471,-2.175578 -5.93401,-2.175578 z m -65.75154,0.03927 c -1.14792,0 -2.09703,0.909411 -2.09703,2.056722 v 15.586129 a 2.1121811,2.1121811 0 0 0 2.09703,2.096512 c 1.1868,0 2.17558,-0.949202 2.17558,-2.096512 v -7.516338 c 0.19836,-0.553452 0.67204,-2.05671 1.6216,-3.322794 0.47448,-0.751507 1.06802,-1.423505 1.81953,-1.898592 0.67253,-0.51427 1.46395,-0.751892 2.37402,-0.751892 1.18661,0 2.09622,-0.988596 2.09651,-2.096513 0,-1.147005 -0.90972,-2.056722 -2.09651,-2.056722 -1.9781,-0.0398 -3.67863,0.672568 -4.9842,1.542541 -0.27979,0.198055 -0.59372,0.514135 -0.83095,0.791166 v -0.276985 c 0,-1.147005 -0.98878,-2.056722 -2.17558,-2.056722 z m 53.65977,0.0021 c -1.1871,0 -2.1363,0.9098 -2.1363,2.175578 v 15.427999 a 2.1274868,2.1274868 0 0 0 2.1363,2.13682 c 1.2269,0 2.13631,-0.950021 2.13631,-2.13682 V 64.029167 c 0,-1.265778 -0.90941,-2.175578 -2.13631,-2.175578 z m -35.08209,3.715535 c 3.44163,0.277033 5.45944,2.610939 5.85494,4.193543 h -11.19467 -5.2e-4 c 0.31989,-1.621787 1.97821,-4.035588 5.34025,-4.193543 z m 20.07629,0.553455 c 1.46353,0 2.72937,0.593583 3.71812,1.622123 0.98936,0.989356 1.58285,2.412502 1.58285,3.995105 0,1.503015 -0.5941,2.927296 -1.58285,3.91604 -0.98875,1.029152 -2.2549,1.62264 -3.71812,1.62264 -1.42404,0 -2.72937,-0.5941 -3.71812,-1.62264 -0.98936,-0.98905 -1.58285,-2.416086 -1.58285,-3.91604 0,-1.582603 0.59411,-3.006361 1.58285,-3.995105 0.98844,-1.02854 2.29408,-1.622123 3.71812,-1.622123 z"
       style="display:inline;fill:#ffffff;stroke:#ffffff;stroke-width:3.96874995;stroke-linecap:round;stroke-linejoin:round;paint-order:markers stroke fill;stroke-dasharray:none"
       id="path14"
       transform="matrix(3.2667653,0,0,3.2667653,-408.32377,63.495865)" /><path
       d="m 421.64,272.268 c 0,3.62 -2.973,6.85 -6.85,6.85 -2.973,0 -5.557,0.776 -7.754,2.456 -2.455,1.552 -4.394,3.748 -5.944,6.203 -3.102,4.136 -4.65,9.046 -5.298,10.854 v 24.554 c 0,3.748 -3.23,6.85 -7.107,6.85 a 6.9,6.9 0 0 1 -6.85,-6.85 V 272.27 c 0,-3.748 3.1,-6.72 6.85,-6.72 3.877,0 7.107,2.973 7.107,6.72 v 0.905 c 0.775,-0.905 1.8,-1.938 2.714,-2.585 4.265,-2.842 9.82,-5.17 16.282,-5.04 3.877,0 6.85,2.973 6.85,6.72 z m -3.794,25.458 c 0.13,-17.575 13.828,-32.307 31.53,-32.307 16.8,0 30.1,12.535 31.145,29.98 v 0.646 c 0,0.26 0,0.904 -0.13,1.163 -0.4,3.102 -3.102,5.17 -6.72,5.17 h -41.094 c 0.646,2.973 2.067,6.332 4.394,8.53 2.714,3.102 7.883,5.426 12.405,5.814 4.652,0.387 10.2,-0.775 13.44,-3.23 2.713,-2.844 8.012,-2.455 9.692,-0.4 1.68,1.8 2.972,5.688 0,8.4 -6.333,5.814 -13.957,8.53 -23.133,8.53 -17.702,-0.127 -31.4,-14.73 -31.53,-32.305 z m 14.086,-6.332 h 36.57 c -1.292,-5.17 -7.883,-12.793 -19.126,-13.698 -10.983,0.516 -16.4,8.4 -17.445,13.698 z m 114.43,31.66 c 0,3.748 -3.102,6.98 -6.98,6.98 -3.5,0 -6.202,-2.455 -6.85,-5.557 -4.9,3.36 -11.113,5.557 -17.575,5.557 -17.445,0 -31.402,-14.732 -31.402,-32.178 0,-17.705 13.957,-32.437 31.402,-32.437 6.333,0 12.535,2.067 17.316,5.427 v -24.294 c 0,-3.748 3.102,-6.98 7.107,-6.98 3.877,0 6.98,3.23 6.98,6.98 v 76.503 z m -31.402,-43.55 c -4.652,0 -8.917,1.938 -12.146,5.298 -3.23,3.23 -5.17,7.882 -5.17,13.052 0,4.9 1.938,9.562 5.17,12.793 3.23,3.36 7.494,5.3 12.146,5.3 4.78,0 8.917,-1.938 12.147,-5.3 3.23,-3.23 5.17,-7.883 5.17,-12.793 0,-5.17 -1.938,-9.82 -5.17,-13.052 -3.23,-3.36 -7.366,-5.298 -12.147,-5.298 z m 56,-30.24 c 0,3.877 -2.972,7.107 -6.98,7.107 -3.877,0 -6.978,-3.23 -6.978,-7.107 v -2.714 a 6.95,6.95 0 0 1 6.978,-6.979 c 4.007,0 6.98,3.102 6.98,6.98 v 2.714 z m 0,23.4 v 50.4 c 0,3.877 -2.972,6.98 -6.98,6.98 a 6.95,6.95 0 0 1 -6.978,-6.979 v -50.4 c 0,-4.135 3.1,-7.108 6.978,-7.108 4.008,0 6.98,2.973 6.98,7.108 z m 8.873,38.89 c 2.326,-3.1 6.85,-3.488 9.692,-1.033 3.36,2.844 9.176,5.814 14.215,5.686 3.5,0 6.72,-1.162 8.788,-2.455 1.8,-1.55 2.325,-2.842 2.325,-3.877 0,-0.646 -0.13,-0.904 -0.387,-1.293 -0.13,-0.387 -0.646,-0.904 -1.68,-1.55 -1.8,-1.293 -5.686,-2.715 -10.338,-3.62 h -0.13 c -4.007,-0.775 -7.884,-1.8 -11.243,-3.36 -3.5,-1.68 -6.6,-4.005 -8.917,-7.494 -1.42,-2.326 -2.196,-5.17 -2.196,-8.14 0,-5.945 3.36,-10.985 7.624,-14.216 4.523,-3.1 9.95,-4.78 15.896,-4.78 8.916,0 15.248,4.265 19.384,7.107 3.102,2.068 4.006,6.333 2.067,9.562 -2.067,3.102 -6.332,4.007 -9.562,1.8 -4.135,-2.713 -7.754,-4.782 -11.9,-4.782 -3.23,0 -6.074,1.034 -7.754,2.326 -1.68,1.164 -2.067,2.327 -2.067,2.973 0,0.516 0,0.646 0.258,1.033 0.13,0.258 0.517,0.775 1.422,1.292 1.68,1.163 5.04,2.326 9.434,3.102 l 0.13,0.13 h 0.13 c 4.265,0.774 8.27,1.938 12.018,3.747 3.5,1.55 6.98,4.006 9.176,7.624 1.55,2.584 2.455,5.557 2.455,8.53 0,6.332 -3.5,11.63 -8.142,15 -4.652,3.23 -10.468,5.17 -16.8,5.17 -10.08,-0.13 -17.833,-4.78 -23.002,-8.916 -2.844,-2.326 -3.23,-6.72 -0.906,-9.564 z"
       fill="#636466"
       id="path1" /><path
       d="m 334.774,339.535 c -9.078,4.732 -56.106,24.068 -66.118,29.287 -10.012,5.219 -15.574,5.17 -23.483,1.39 -7.909,-3.78 -57.955,-23.996 -66.97,-28.305 -4.506,-2.154 -6.875,-3.97 -6.875,-5.688 v -17.195 c 0,0 65.152,-14.184 75.672,-17.958 10.52,-3.774 14.167,-3.9 23.118,-0.63 8.951,3.27 62.474,12.936 71.32,16.176 l -0.004,16.95 c 10e-4,1.7 -2.04,3.565 -6.66,5.973 z"
       fill="#a41e11"
       id="path2" /><path
       d="m 334.774,322.336 c -9.078,4.73 -56.106,24.068 -66.118,29.287 -10.012,5.219 -15.574,5.17 -23.483,1.39 -7.909,-3.78 -57.955,-23.998 -66.97,-28.305 -9.015,-4.307 -9.204,-7.275 -0.348,-10.742 L 247,287.195 c 10.518,-3.772 14.167,-3.9 23.118,-0.63 8.951,3.27 55.7,21.886 64.545,25.126 8.845,3.24 9.188,5.913 0.1,10.645 z"
       fill="#d82c20"
       id="path3" /><path
       d="m 334.774,311.496 c -9.078,4.732 -56.106,24.068 -66.118,29.29 -10.012,5.222 -15.574,5.168 -23.483,1.387 -7.909,-3.781 -57.955,-23.996 -66.97,-28.305 -4.506,-2.154 -6.875,-3.97 -6.875,-5.686 v -17.197 c 0,0 65.152,-14.185 75.672,-17.958 10.52,-3.773 14.167,-3.9 23.118,-0.63 8.951,3.27 62.474,12.934 71.32,16.175 l -0.004,16.953 c 10e-4,1.7 -2.04,3.564 -6.66,5.972 z"
       fill="#a41e11"
       id="path4" /><path
       d="m 334.774,294.297 c -9.078,4.732 -56.106,24.068 -66.118,29.29 -10.012,5.222 -15.574,5.168 -23.483,1.387 -7.909,-3.781 -57.955,-23.997 -66.97,-28.305 -9.015,-4.308 -9.204,-7.274 -0.348,-10.743 L 247,259.157 c 10.518,-3.773 14.167,-3.9 23.118,-0.63 8.951,3.27 55.7,21.885 64.545,25.126 8.845,3.241 9.188,5.913 0.1,10.645 z"
       fill="#d82c20"
       id="path5" /><path
       d="m 334.774,282.42 c -9.078,4.732 -56.106,24.07 -66.118,29.3 -10.012,5.23 -15.574,5.168 -23.483,1.387 -7.909,-3.781 -57.955,-23.997 -66.97,-28.305 -4.506,-2.154 -6.875,-3.97 -6.875,-5.686 v -17.197 c 0,0 65.152,-14.194 75.672,-17.967 10.52,-3.773 14.167,-3.9 23.118,-0.63 8.951,3.27 62.474,12.934 71.32,16.175 l -0.004,16.952 c 10e-4,1.698 -2.04,3.563 -6.66,5.97 z"
       fill="#a41e11"
       id="path6" /><path
       d="m 334.774,265.22 c -9.078,4.732 -56.106,24.07 -66.118,29.29 -10.012,5.22 -15.574,5.168 -23.483,1.388 -7.909,-3.78 -57.955,-23.997 -66.97,-28.305 -9.015,-4.308 -9.204,-7.275 -0.348,-10.743 L 247,230.08 c 10.518,-3.774 14.167,-3.9 23.118,-0.63 8.951,3.27 55.7,21.885 64.545,25.126 8.845,3.241 9.188,5.912 0.1,10.643 z"
       fill="#d82c20"
       id="path7" /><g
       fill="#ffffff"
       id="g8"><path
         d="m 263.933,250.186 -3.302,7.944 -5.335,-8.86 -17.02,-1.53 12.7,-4.583 -3.8,-7.03 11.887,4.652 11.217,-3.67 -3.036,7.268 11.43,4.278 z m -31.697,25.584 39.42,-6.05 -11.903,17.46 z"
         id="path8" /><ellipse
         cx="221.612"
         cy="261.241"
         rx="21.069"
         ry="8.1669998"
         id="ellipse8" /></g><path
       d="m 319.42,260.053 -23.314,9.204 -0.013,-18.43 z"
       fill="#7a0c00"
       id="path9" /><path
       d="m 296.094,250.826 0.013,18.43 -2.525,0.996 -23.3,-9.217 z"
       fill="#ad2115"
       id="path10" /></g><path
     style="color:#000000;fill:#000000;paint-order:markers stroke fill;stroke:#ffffff;stroke-width:3.96875;stroke-dasharray:none;stroke-linejoin:round;stroke-linecap:round"
     d="M 33.273835,99.897823 C 32.729523,99.703653 32.145459,99.296976 31.85011,98.906467 31.370872,98.272827 21.503904,82.942794 21.365662,82.617064 c -0.182709,-0.43049 -0.183409,-2.05997 -8.75e-4,-2.49294 0.218934,-0.51989 20.856939,-33.887408 21.157425,-34.207328 0.712679,-0.7588 2.108675,-1.07665 3.174191,-0.72274 0.399998,0.13286 0.694446,0.33292 1.104559,0.75049 0.511263,0.52054 0.686832,0.84315 2.048545,3.76414 1.223883,2.62532 6.816519,14.508093 16.406294,34.858748 l 1.386879,2.94313 -0.0017,0.76114 c -0.0026,0.9027 -0.259719,1.564895 -0.840177,2.162985 -0.692573,0.71359 -0.359013,0.59327 -7.327432,2.64327 -1.423348,0.41873 -4.848543,1.430728 -7.611519,2.248868 -16.028127,4.746063 -15.92787,4.717553 -16.578267,4.712913 -0.343079,-0.003 -0.797206,-0.0663 -1.009166,-0.141917 z m 5.870169,-4.378526 c 3.81388,-1.12389 17.408556,-5.146488 20.039197,-5.929498 1.479173,-0.440265 2.80999,-0.829305 2.957375,-0.864525 0.382472,-0.0914 0.795359,-0.56383 0.864353,-0.98897 0.05277,-0.32533 -0.489677,-1.52929 -5.094252,-11.306265 -2.834341,-6.01818 -6.561149,-13.9335 -8.281814,-17.589561 -1.72126,-3.657352 -3.22552,-6.727282 -3.344222,-6.825002 -0.236583,-0.19476 -0.712235,-0.23288 -0.997914,-0.08 -0.226188,0.12105 -0.35392,0.44886 -0.555163,1.42469 -0.391537,1.89865 -4.964708,23.824023 -5.186171,24.864323 -2.233249,10.490545 -3.503603,16.827958 -3.427505,17.098728 0.08798,0.31306 0.639496,0.76298 0.935264,0.76298 0.0919,0 1.032782,-0.2551 2.090852,-0.5669 z M 116.77708,82.117054 c -0.928,-0.0603 -2.02068,-0.25737 -2.81626,-0.50775 l -0.78653,-0.24753 v -1.52875 c 0,-1.416135 0.013,-1.523365 0.17761,-1.455685 2.97136,1.222705 5.71279,1.407015 6.32715,0.42537 0.26013,-0.41563 0.19482,-0.91636 -0.16904,-1.29616 -0.27114,-0.283 -0.49499,-0.40189 -3.22979,-1.71542 -1.25112,-0.60091 -1.61134,-0.82569 -2.0896,-1.30395 -0.75881,-0.75881 -0.96695,-1.33356 -0.96194,-2.65636 0.003,-0.84224 0.0392,-1.03757 0.28519,-1.54499 0.44119,-0.91024 1.31427,-1.55805 2.65863,-1.97263 0.95592,-0.2948 3.84405,-0.26699 5.04179,0.0486 1.01591,0.26764 2.05796,0.67056 2.05796,0.79574 0,0.0738 -0.95743,2.46394 -1.02311,2.55415 -0.0132,0.0182 -0.45582,-0.12863 -0.98352,-0.32628 -1.24698,-0.46705 -1.76708,-0.57801 -2.71902,-0.5801 -1.15217,-0.003 -1.71878,0.29733 -1.71878,0.90961 0,0.51816 0.89663,1.12965 2.71265,1.85 1.17438,0.46582 2.29736,1.07609 2.80917,1.52661 1.50773,1.32716 1.4835,4.331115 -0.0461,5.712995 -1.05122,0.94973 -3.21272,1.46308 -5.52647,1.31258 z m 35.69435,-0.0401 c -2.20281,-0.2968 -3.5174,-2.0825 -3.34397,-4.542405 0.11238,-1.59412 0.75891,-2.57049 2.13473,-3.22387 0.40519,-0.19242 1.05507,-0.41859 1.4442,-0.5026 0.78384,-0.16921 2.81635,-0.34596 4.03119,-0.35053 l 0.78653,-0.003 -0.002,-0.68503 c -0.003,-1.17234 -0.58528,-1.87288 -1.66972,-2.00837 -0.90217,-0.11272 -2.50179,0.19935 -3.66996,0.71597 -0.31359,0.13869 -0.57893,0.25214 -0.58962,0.25214 -0.0107,0 -0.28731,-0.55163 -0.61467,-1.22587 -0.6738,-1.3878 -0.70883,-1.24109 0.40817,-1.70955 2.18026,-0.91438 5.83424,-0.98889 7.47625,-0.15245 1.01308,0.51605 1.62461,1.17146 2.04049,2.18692 0.21791,0.53209 0.22478,0.67741 0.27425,5.80054 l 0.0508,5.254785 -1.30239,-0.0282 -1.3024,-0.0282 -0.30886,-0.81188 c -0.16986,-0.44655 -0.34338,-0.84993 -0.3856,-0.8964 -0.0422,-0.0464 -0.29345,0.14718 -0.55833,0.43036 -0.26488,0.28317 -0.69206,0.65426 -0.94929,0.82465 -0.89904,0.5955 -2.55736,0.89061 -3.95008,0.70296 z m 3.33231,-2.830135 c 0.73668,-0.27991 1.15393,-0.63593 1.45616,-1.2424 0.22863,-0.45878 0.26421,-0.65948 0.26421,-1.49 v -0.95979 l -1.19247,0.0642 c -2.29994,0.12381 -3.18231,0.61566 -3.42498,1.90918 -0.0789,0.42069 0.0798,1.09284 0.33095,1.40109 0.40875,0.501775 1.6706,0.658005 2.56613,0.31772 z m -74.699344,-6.25652 v -8.88771 l 3.780392,0.0396 c 3.466601,0.0362 3.844777,0.0574 4.556109,0.2544 1.608403,0.44558 2.727319,1.23613 3.317903,2.34418 0.464403,0.8713 0.62552,1.62038 0.62552,2.90816 0,1.89841 -0.415728,3.02633 -1.514972,4.11022 -1.307818,1.28957 -3.071726,1.81516 -6.121921,1.82416 l -0.888013,0.003 v 3.1461 3.146085 h -1.877509 -1.877509 z m 6.594154,-0.70085 c 0.72976,-0.1942 1.312887,-0.61498 1.626296,-1.17355 0.21834,-0.38914 0.253715,-0.57953 0.253715,-1.36557 0,-0.72709 -0.04288,-0.99507 -0.210123,-1.31392 -0.487576,-0.92946 -1.383395,-1.274 -3.312503,-1.274 h -1.196521 v 2.63867 2.63866 l 1.141729,-8.7e-4 c 0.674101,-7.4e-4 1.369325,-0.0618 1.697407,-0.14909 z m 8.198988,2.78897 0.02674,-6.79964 H 97.2861 c 1.209358,0 1.367688,0.0199 1.414238,0.17759 0.0289,0.0977 0.14979,0.59964 0.26882,1.11547 0.119,0.51582 0.25549,0.96203 0.3033,0.99159 0.0478,0.0295 0.22117,-0.14131 0.38524,-0.37968 0.474762,-0.68975 1.287742,-1.38453 2.025852,-1.73131 0.59584,-0.27993 0.814,-0.32557 1.72102,-0.36006 0.57128,-0.0217 1.09724,-0.0171 1.16881,0.0104 0.1053,0.0405 0.1069,0.31849 0.009,1.45764 -0.0669,0.77425 -0.12478,1.54472 -0.12849,1.71218 l -0.007,0.30446 -0.96448,-0.0351 c -1.78197,-0.065 -2.94769,0.51905 -3.571522,1.78943 l -0.2848,0.57995 -0.0298,3.98336 -0.0298,3.983365 -1.847725,2e-5 -1.847711,2e-5 z m 10.781592,-2e-5 v -6.79962 h 1.8775 1.87751 v 6.79962 6.799635 h -1.87751 -1.8775 z m 19.38401,0 v -6.79962 h 1.40639 1.4064 l 0.23182,0.86263 c 0.1275,0.47446 0.27437,0.86264 0.32636,0.86264 0.052,0 0.31544,-0.2417 0.58543,-0.53711 0.95636,-1.04643 2.06222,-1.43944 3.84899,-1.36791 1.73252,0.0694 2.85365,0.55137 3.52048,1.51359 0.14918,0.21528 0.33468,0.39143 0.4122,0.39143 0.0775,0 0.40243,-0.26547 0.72199,-0.58992 0.93566,-0.94999 1.96105,-1.3351 3.56024,-1.33713 1.88213,-0.003 3.25511,0.61578 3.91649,1.76337 0.61697,1.07049 0.60672,0.96648 0.66356,6.73504 l 0.0522,5.302755 -1.84646,-6e-5 -1.84646,-7e-5 -0.0343,-4.592285 c -0.0366,-4.90517 -0.04,-4.9399 -0.56268,-5.6433 -0.33036,-0.4446 -0.78316,-0.62404 -1.56777,-0.6213 -1.13771,0.004 -1.86018,0.52876 -2.32572,1.68936 -0.23371,0.58264 -0.23792,0.65868 -0.27013,4.8797 l -0.0327,4.287825 h -1.87149 -1.87151 v -4.447005 c 0,-4.89876 -0.0293,-5.17829 -0.61281,-5.84286 -0.42885,-0.48843 -0.78197,-0.60412 -1.66987,-0.54714 -1.22805,0.0788 -1.83879,0.63881 -2.24491,2.05837 -0.14783,0.51674 -0.1807,1.22735 -0.2171,4.69378 l -0.0429,4.084855 h -1.81792 -1.81791 z m -18.37793,-8.61695 c -0.76721,-0.24698 -1.10766,-0.76938 -1.10741,-1.69932 3.2e-4,-1.20711 0.64806,-1.79451 1.97883,-1.79451 1.3263,0 1.97899,0.59981 1.97899,1.81863 0,0.4768 -0.053,0.69872 -0.22833,0.95638 -0.41363,0.60773 -0.71514,0.75683 -1.57991,0.78128 -0.42882,0.0122 -0.89779,-0.016 -1.04217,-0.0625 z"
     id="path69"
     inkscape:label="Prisma" /><path
     style="fill:#ff0000;stroke-width:3.96875;stroke:#ffffff;paint-order:markers stroke fill;stroke-dasharray:none;stroke-linecap:round;stroke-linejoin:round"
     d="m 168.98842,56.571949 c -1.85669,-2.557204 -3.86926,-4.691737 -7.27884,-7.719645 -0.38464,-0.341593 -1.055,-0.936859 -1.4897,-1.322816 -1.98449,-1.761871 -2.58287,-2.308315 -3.36017,-3.068601 -2.20533,-2.157016 -3.65239,-4.298672 -4.37798,-6.479672 -0.74093,-2.226868 -0.85883,-4.970143 -0.29143,-6.780886 0.0508,-0.161849 0.16728,-0.482768 0.25906,-0.713153 0.81424,-2.044413 2.12645,-3.618415 3.85219,-4.620527 1.54771,-0.898732 3.69376,-1.397955 5.44454,-1.26649 2.03295,0.152653 3.75774,0.908352 5.44051,2.383724 0.74517,0.653185 1.48844,1.61014 1.95374,2.515224 0.10119,0.196742 0.19222,0.357711 0.20232,0.357711 0.0106,0 0.10119,-0.160103 0.20231,-0.355792 1.00594,-1.945982 2.84636,-3.589004 4.85345,-4.332976 1.29861,-0.481318 3.07065,-0.676299 4.50805,-0.496019 1.99691,0.250445 3.73455,1.114676 5.20691,2.589644 1.48875,1.491313 2.35595,3.18263 2.65142,5.17091 0.0684,0.462451 0.0922,1.960752 0.0405,2.61809 -0.12658,1.623687 -0.76858,3.559954 -1.69316,5.10651 -1.19165,1.993333 -2.79617,3.74137 -6.26224,6.822523 -0.54566,0.485068 -1.06657,0.95024 -1.1576,1.033712 -0.0911,0.08346 -0.4304,0.388872 -0.75411,0.678672 -3.3227,2.974775 -5.51868,5.358318 -7.24277,7.861467 -0.18848,0.273646 -0.3079,0.413818 -0.35261,0.413818 -0.0439,0 -0.16949,-0.140384 -0.35468,-0.395428 z"
     id="path13"
     inkscape:label="Heart" /><text
     xml:space="preserve"
     style="font-style:normal;font-variant:normal;font-weight:normal;font-stretch:normal;font-size:17.6389px;font-family:sans-serif;-inkscape-font-specification:'sans-serif, Normal';font-variant-ligatures:normal;font-variant-caps:normal;font-variant-numeric:normal;font-variant-east-asian:normal;text-align:center;text-anchor:middle;display:inline;opacity:1;fill:#000000;stroke:#ffffff;stroke-width:3.96875;stroke-dasharray:none;stroke-linejoin:round;stroke-linecap:round;paint-order:markers stroke fill"
     x="170.16016"
     y="121.29614"
     id="text13"
     inkscape:label="Description"><tspan
       sodipodi:role="line"
       id="tspan17"
       x="170.16016"
       y="121.29614"
       style="font-style:normal;font-variant:normal;font-weight:normal;font-stretch:normal;font-size:17.6389px;font-family:sans-serif;-inkscape-font-specification:'sans-serif, Normal';font-variant-ligatures:normal;font-variant-caps:normal;font-variant-numeric:normal;font-variant-east-asian:normal;stroke-linejoin:round;stroke-linecap:round;stroke-width:3.96875;stroke-dasharray:none;paint-order:markers stroke fill">Type-safely cache Prisma</tspan><tspan
       sodipodi:role="line"
       id="tspan18"
       x="170.16016"
       y="143.53651"
       style="font-style:normal;font-variant:normal;font-weight:normal;font-stretch:normal;font-size:17.6389px;font-family:sans-serif;-inkscape-font-specification:'sans-serif, Normal';font-variant-ligatures:normal;font-variant-caps:normal;font-variant-numeric:normal;font-variant-east-asian:normal;stroke-linejoin:round;stroke-linecap:round;stroke-width:3.96875;stroke-dasharray:none;paint-order:markers stroke fill">operations using Redis</tspan></text></svg>
